<?xml version="1.0" standalone="no"?><!-- Generator: Gravit.io --><svg xmlns="http://www.w3.org/2000/svg" xmlns:xlink="http://www.w3.org/1999/xlink" style="isolation:isolate" viewBox="0 0 20 20" width="20" height="20"><defs><clipPath id="_clipPath_2ZXNyj2EIyhdi0smWixdzi8grl6PQ335"><rect width="20" height="20"/></clipPath></defs><g clip-path="url(#_clipPath_2ZXNyj2EIyhdi0smWixdzi8grl6PQ335)"><rect x="0" y="0" width="20" height="20" transform="matrix(1,0,0,1,0,0)" fill="none"/><path d=" M 19.167 2.5 C 18.369 3.063 17.485 3.493 16.55 3.775 C 16.048 3.198 15.381 2.789 14.639 2.603 C 13.897 2.418 13.116 2.464 12.402 2.737 C 11.687 3.01 11.074 3.495 10.644 4.128 C 10.215 4.761 9.99 5.51 10 6.275 L 10 7.108 C 8.536 7.146 7.084 6.822 5.776 6.163 C 4.467 5.504 3.342 4.532 2.5 3.333 C 2.5 3.333 -0.833 10.833 6.667 14.167 C 4.95 15.332 2.906 15.916 0.833 15.833 C 8.333 20 17.5 15.833 17.5 6.25 C 17.499 6.018 17.477 5.786 17.433 5.558 C 18.284 4.72 18.884 3.661 19.167 2.5 L 19.167 2.5 L 19.167 2.5 Z " fill="none" vector-effect="non-scaling-stroke" stroke-width="2" stroke="rgb(255,143,114)" stroke-linejoin="round" stroke-linecap="round" stroke-miterlimit="4"/></g></svg>