<svg width="117" height="18" fill="none" xmlns="http://www.w3.org/2000/svg">
  <path d="M41.017 14.18c-.981 0-1.847-.213-2.596-.64a4.723 4.723 0 01-1.782-1.781c-.426-.762-.639-1.634-.639-2.616 0-.981.213-1.853.64-2.615a4.723 4.723 0 011.781-1.782c.75-.426 1.615-.64 2.596-.64 1.227 0 2.26.324 3.1.97.84.632 1.375 1.51 1.608 2.634h-2.616a1.856 1.856 0 00-.775-1.085c-.374-.271-.82-.407-1.336-.407-.685 0-1.266.259-1.744.775-.477.517-.716 1.233-.716 2.15 0 .917.239 1.634.716 2.15.478.517 1.06.776 1.744.776.516 0 .962-.13 1.337-.388a1.86 1.86 0 00.774-1.104h2.615c-.232 1.085-.768 1.956-1.607 2.615-.84.659-1.873.988-3.1.988zm10.443 0c-.93 0-1.77-.213-2.519-.64a4.807 4.807 0 01-1.763-1.762c-.426-.762-.639-1.64-.639-2.635 0-.994.22-1.866.659-2.615a4.766 4.766 0 011.763-1.782c.749-.426 1.588-.64 2.518-.64.917 0 1.743.214 2.48.64a4.586 4.586 0 011.762 1.782c.44.75.659 1.621.659 2.615 0 .995-.22 1.873-.659 2.635a4.622 4.622 0 01-1.762 1.763c-.75.426-1.583.639-2.5.639zm0-2.15c.645 0 1.207-.24 1.685-.717.478-.49.717-1.214.717-2.17 0-.955-.24-1.672-.717-2.15-.478-.49-1.033-.736-1.666-.736-.659 0-1.227.245-1.705.736-.465.478-.697 1.195-.697 2.15 0 .956.232 1.68.697 2.17.478.478 1.04.717 1.686.717zm10.671 2.15c-.93 0-1.77-.213-2.518-.64a4.806 4.806 0 01-1.763-1.762c-.426-.762-.64-1.64-.64-2.635 0-.994.22-1.866.66-2.615a4.766 4.766 0 011.762-1.782c.75-.426 1.589-.64 2.519-.64.916 0 1.743.214 2.48.64a4.586 4.586 0 011.762 1.782c.439.75.659 1.621.659 2.615 0 .995-.22 1.873-.66 2.635a4.622 4.622 0 01-1.762 1.763c-.749.426-1.582.639-2.499.639zm0-2.15c.646 0 1.208-.24 1.685-.717.478-.49.717-1.214.717-2.17 0-.955-.239-1.672-.717-2.15-.477-.49-1.033-.736-1.666-.736-.658 0-1.226.245-1.704.736-.465.478-.697 1.195-.697 2.15 0 .956.232 1.68.697 2.17.478.478 1.04.717 1.685.717zm6.061 1.917V0h2.48v13.947h-2.48zm5.274-11.099c-.452 0-.827-.136-1.124-.407a1.36 1.36 0 01-.426-1.027c0-.413.142-.749.426-1.007C72.64.136 73.014 0 73.466 0c.452 0 .82.136 1.104.407.297.258.446.594.446 1.007 0 .413-.149.756-.446 1.027-.284.271-.652.407-1.104.407zm-1.24 11.1v-9.61h2.48v9.608h-2.48zm8.699.232c-.982 0-1.847-.213-2.596-.64a4.723 4.723 0 01-1.782-1.781c-.426-.762-.64-1.634-.64-2.616 0-.981.214-1.853.64-2.615a4.723 4.723 0 011.782-1.782c.75-.426 1.614-.64 2.596-.64 1.227 0 2.26.324 3.1.97.839.632 1.375 1.51 1.607 2.634h-2.615a1.855 1.855 0 00-.775-1.085c-.374-.271-.82-.407-1.337-.407-.684 0-1.265.259-1.743.775-.478.517-.717 1.233-.717 2.15 0 .917.24 1.634.717 2.15.478.517 1.06.776 1.743.776.517 0 .963-.13 1.337-.388a1.86 1.86 0 00.775-1.104h2.615c-.232 1.085-.768 1.956-1.608 2.615-.84.659-1.872.988-3.1.988zm10.442 0c-.93 0-1.77-.213-2.518-.64a4.807 4.807 0 01-1.763-1.762c-.426-.762-.64-1.64-.64-2.635 0-.994.22-1.866.66-2.615a4.766 4.766 0 011.762-1.782c.75-.426 1.589-.64 2.519-.64.916 0 1.743.214 2.48.64a4.585 4.585 0 011.762 1.782c.44.75.659 1.621.659 2.615 0 .995-.22 1.873-.659 2.635a4.622 4.622 0 01-1.763 1.763c-.749.426-1.582.639-2.499.639zm0-2.15c.646 0 1.208-.24 1.685-.717.478-.49.717-1.214.717-2.17 0-.955-.239-1.672-.717-2.15-.477-.49-1.033-.736-1.665-.736-.659 0-1.227.245-1.705.736-.465.478-.698 1.195-.698 2.15 0 .956.233 1.68.698 2.17.478.478 1.04.717 1.685.717zm6.061 1.917V4.34h2.19l.193 1.627a3.393 3.393 0 011.279-1.356c.568-.335 1.233-.503 1.995-.503 1.188 0 2.111.374 2.77 1.123.659.75.988 1.847.988 3.293v5.425h-2.48V8.755c0-.827-.167-1.46-.503-1.898-.336-.44-.859-.66-1.569-.66-.698 0-1.272.246-1.724.737-.44.49-.66 1.175-.66 2.053v4.96h-2.479zm14.681.233c-.852 0-1.601-.136-2.247-.407-.646-.284-1.162-.671-1.55-1.162a3.336 3.336 0 01-.697-1.705h2.499c.077.375.284.698.62.969.348.258.794.387 1.336.387.543 0 .937-.11 1.182-.33.258-.219.387-.47.387-.755 0-.413-.18-.69-.542-.833-.362-.154-.865-.303-1.511-.445-.413-.09-.833-.2-1.259-.33a6.456 6.456 0 01-1.182-.484 2.727 2.727 0 01-.852-.775c-.22-.322-.33-.716-.33-1.181 0-.853.336-1.57 1.008-2.15.684-.582 1.64-.872 2.867-.872 1.136 0 2.04.265 2.712.794.684.53 1.091 1.26 1.22 2.189h-2.344c-.142-.71-.678-1.065-1.608-1.065-.464 0-.826.09-1.084.27-.246.182-.368.408-.368.679 0 .284.187.51.561.678.375.168.872.323 1.492.465.671.155 1.285.329 1.84.523.568.18 1.02.458 1.356.833.336.361.504.884.504 1.569a2.696 2.696 0 01-.465 1.608c-.323.477-.788.852-1.395 1.123s-1.323.407-2.15.407z" fill="#fff"/>
  <path fill-rule="evenodd" clip-rule="evenodd" d="M8 1c1.305 0 2.537.313 3.626.867a10.987 10.987 0 00-2.003 3.476A4 4 0 1012 9a7.97 7.97 0 012-5.292 8 8 0 110 10.583A8 8 0 118 1zm8 8a4 4 0 108 0 4 4 0 00-8 0z" fill="#C5CEE0"/>
</svg>
