<svg width="117" height="18" viewBox="0 0 117 18" fill="none" xmlns="http://www.w3.org/2000/svg">
<g clip-path="url(#clip0_155_790)">
<path d="M41.017 14.18C40.036 14.18 39.17 13.967 38.421 13.54C37.6767 13.1186 37.0608 12.5031 36.639 11.759C36.213 10.997 36 10.125 36 9.143C36 8.162 36.213 7.29 36.64 6.528C37.0614 5.78369 37.6769 5.16778 38.421 4.746C39.171 4.32 40.036 4.106 41.017 4.106C42.244 4.106 43.277 4.43 44.117 5.076C44.957 5.708 45.492 6.586 45.725 7.71H43.109C42.994 7.26482 42.7178 6.87818 42.334 6.625C41.96 6.354 41.514 6.218 40.998 6.218C40.313 6.218 39.732 6.477 39.254 6.993C38.777 7.51 38.538 8.226 38.538 9.143C38.538 10.06 38.777 10.777 39.254 11.293C39.732 11.81 40.314 12.069 40.998 12.069C41.514 12.069 41.96 11.939 42.335 11.681C42.722 11.4228 42.9982 11.0288 43.109 10.577H45.724C45.492 11.662 44.956 12.533 44.117 13.192C43.277 13.851 42.244 14.18 41.017 14.18ZM51.46 14.18C50.53 14.18 49.69 13.967 48.941 13.54C48.2086 13.1179 47.6005 12.5101 47.178 11.778C46.752 11.016 46.539 10.138 46.539 9.143C46.539 8.149 46.759 7.277 47.198 6.528C47.6161 5.78733 48.2249 5.17205 48.961 4.746C49.71 4.32 50.549 4.106 51.479 4.106C52.396 4.106 53.222 4.32 53.959 4.746C54.7004 5.16489 55.3105 5.78193 55.721 6.528C56.161 7.278 56.38 8.149 56.38 9.143C56.38 10.138 56.16 11.016 55.721 11.778C55.3062 12.5159 54.6967 13.1258 53.959 13.541C53.209 13.967 52.376 14.18 51.459 14.18H51.46ZM51.46 12.03C52.105 12.03 52.667 11.79 53.145 11.313C53.623 10.823 53.862 10.099 53.862 9.143C53.862 8.188 53.622 7.471 53.145 6.993C52.667 6.503 52.112 6.257 51.479 6.257C50.82 6.257 50.252 6.502 49.774 6.993C49.309 7.471 49.077 8.188 49.077 9.143C49.077 10.099 49.309 10.823 49.774 11.313C50.252 11.791 50.814 12.03 51.46 12.03ZM62.131 14.18C61.201 14.18 60.361 13.967 59.613 13.54C58.8806 13.1179 58.2725 12.5102 57.85 11.778C57.424 11.016 57.21 10.138 57.21 9.143C57.21 8.149 57.43 7.277 57.87 6.528C58.2879 5.78746 58.8962 5.17219 59.632 4.746C60.382 4.32 61.221 4.106 62.151 4.106C63.067 4.106 63.894 4.32 64.631 4.746C65.3724 5.16489 65.9825 5.78193 66.393 6.528C66.832 7.278 67.052 8.149 67.052 9.143C67.052 10.138 66.832 11.016 66.392 11.778C65.9772 12.5159 65.3677 13.1258 64.63 13.541C63.881 13.967 63.048 14.18 62.131 14.18ZM62.131 12.03C62.777 12.03 63.339 11.79 63.816 11.313C64.294 10.823 64.533 10.099 64.533 9.143C64.533 8.188 64.294 7.471 63.816 6.993C63.339 6.503 62.783 6.257 62.15 6.257C61.492 6.257 60.924 6.502 60.446 6.993C59.981 7.471 59.749 8.188 59.749 9.143C59.749 10.099 59.981 10.823 60.446 11.313C60.924 11.791 61.486 12.03 62.131 12.03ZM68.192 13.947V0H70.672V13.947H68.192ZM73.466 2.848C73.014 2.848 72.639 2.712 72.342 2.441C72.2027 2.30948 72.0927 2.15001 72.0193 1.97302C71.9458 1.79604 71.9107 1.60553 71.916 1.414C71.916 1.001 72.058 0.665 72.342 0.407C72.64 0.136 73.014 0 73.466 0C73.918 0 74.286 0.136 74.57 0.407C74.867 0.665 75.016 1.001 75.016 1.414C75.016 1.827 74.867 2.17 74.57 2.441C74.286 2.712 73.918 2.848 73.466 2.848ZM72.226 13.948V4.338H74.706V13.946H72.226V13.948ZM80.925 14.18C79.943 14.18 79.078 13.967 78.329 13.54C77.5847 13.1186 76.9688 12.5031 76.547 11.759C76.121 10.997 75.907 10.125 75.907 9.143C75.907 8.162 76.121 7.29 76.547 6.528C76.9686 5.78356 77.5846 5.16764 78.329 4.746C79.079 4.32 79.943 4.106 80.925 4.106C82.152 4.106 83.185 4.43 84.025 5.076C84.864 5.708 85.4 6.586 85.632 7.71H83.017C82.9021 7.26478 82.6259 6.87811 82.242 6.625C81.868 6.354 81.422 6.218 80.905 6.218C80.221 6.218 79.64 6.477 79.162 6.993C78.684 7.51 78.445 8.226 78.445 9.143C78.445 10.06 78.685 10.777 79.162 11.293C79.64 11.81 80.222 12.069 80.905 12.069C81.422 12.069 81.868 11.939 82.242 11.681C82.6294 11.4229 82.9059 11.029 83.017 10.577H85.632C85.4 11.662 84.864 12.533 84.024 13.192C83.184 13.851 82.152 14.18 80.924 14.18H80.925ZM91.367 14.18C90.437 14.18 89.597 13.967 88.849 13.54C88.1166 13.1179 87.5085 12.5101 87.086 11.778C86.66 11.016 86.446 10.138 86.446 9.143C86.446 8.149 86.666 7.277 87.106 6.528C87.5239 5.78746 88.1322 5.17219 88.868 4.746C89.618 4.32 90.457 4.106 91.387 4.106C92.303 4.106 93.13 4.32 93.867 4.746C94.6084 5.16485 95.2185 5.7819 95.629 6.528C96.069 7.278 96.288 8.149 96.288 9.143C96.288 10.138 96.068 11.016 95.629 11.778C95.2139 12.5161 94.6041 13.1259 93.866 13.541C93.117 13.967 92.284 14.18 91.367 14.18ZM91.367 12.03C92.013 12.03 92.575 11.79 93.052 11.313C93.53 10.823 93.769 10.099 93.769 9.143C93.769 8.188 93.53 7.471 93.052 6.993C92.575 6.503 92.019 6.257 91.387 6.257C90.728 6.257 90.16 6.502 89.682 6.993C89.217 7.471 88.984 8.188 88.984 9.143C88.984 10.099 89.217 10.823 89.682 11.313C90.16 11.791 90.722 12.03 91.367 12.03ZM97.428 13.947V4.34H99.618L99.811 5.967C100.102 5.40446 100.545 4.93473 101.09 4.611C101.658 4.276 102.323 4.108 103.085 4.108C104.273 4.108 105.196 4.482 105.855 5.231C106.514 5.981 106.843 7.078 106.843 8.524V13.949H104.363V8.755C104.363 7.928 104.196 7.295 103.86 6.857C103.524 6.417 103.001 6.197 102.291 6.197C101.593 6.197 101.019 6.443 100.567 6.934C100.127 7.424 99.907 8.109 99.907 8.987V13.947H97.428ZM112.109 14.18C111.257 14.18 110.508 14.044 109.862 13.773C109.216 13.489 108.7 13.102 108.312 12.611C107.924 12.1193 107.683 11.5285 107.615 10.906H110.114C110.191 11.281 110.398 11.604 110.734 11.875C111.082 12.133 111.528 12.262 112.07 12.262C112.613 12.262 113.007 12.152 113.252 11.932C113.51 11.713 113.639 11.462 113.639 11.177C113.639 10.764 113.459 10.487 113.097 10.344C112.735 10.19 112.232 10.041 111.586 9.899C111.173 9.809 110.753 9.699 110.327 9.569C109.918 9.44713 109.522 9.28501 109.145 9.085C108.809 8.89027 108.519 8.62605 108.293 8.31C108.073 7.988 107.963 7.594 107.963 7.129C107.963 6.276 108.299 5.559 108.971 4.979C109.655 4.397 110.611 4.107 111.838 4.107C112.974 4.107 113.878 4.372 114.55 4.901C115.234 5.431 115.641 6.161 115.77 7.09H113.426C113.284 6.38 112.748 6.025 111.818 6.025C111.354 6.025 110.992 6.115 110.734 6.295C110.488 6.477 110.366 6.703 110.366 6.974C110.366 7.258 110.553 7.484 110.927 7.652C111.302 7.82 111.799 7.975 112.419 8.117C113.09 8.272 113.704 8.446 114.259 8.64C114.827 8.82 115.279 9.098 115.615 9.473C115.951 9.834 116.119 10.357 116.119 11.042C116.139 11.6138 115.976 12.1769 115.654 12.65C115.331 13.127 114.866 13.502 114.259 13.773C113.652 14.044 112.936 14.18 112.109 14.18Z" fill="white"/>
<path fill-rule="evenodd" clip-rule="evenodd" d="M7.99996 1.00001C9.30496 1.00001 10.537 1.31301 11.626 1.86701C10.7506 2.89293 10.0716 4.07124 9.62296 5.34301C8.83475 4.9931 7.95456 4.90729 7.11361 5.09839C6.27266 5.28948 5.51599 5.74724 4.9564 6.40342C4.39682 7.0596 4.06428 7.87906 4.00837 8.73963C3.95246 9.60021 4.17618 10.4558 4.64616 11.1789C5.11615 11.9019 5.80723 12.4538 6.61638 12.752C7.42554 13.0503 8.30943 13.0791 9.13629 12.8341C9.96315 12.5892 10.6887 12.0835 11.2047 11.3926C11.7208 10.7016 11.9997 9.8624 12 9.00001C11.9971 7.05079 12.7086 5.16809 14 3.70801C15.0748 2.48928 16.4952 1.62676 18.0723 1.23522C19.6494 0.843678 21.3084 0.941684 22.8284 1.5162C24.3484 2.09071 25.6574 3.11449 26.5813 4.45129C27.5051 5.7881 28 7.37454 28 8.99951C28 10.6245 27.5051 12.2109 26.5813 13.5477C25.6574 14.8845 24.3484 15.9083 22.8284 16.4828C21.3084 17.0573 19.6494 17.1553 18.0723 16.7638C16.4952 16.3723 15.0748 15.5097 14 14.291C13.1158 15.2937 11.9944 16.0589 10.7383 16.5166C9.48227 16.9743 8.13152 17.1099 6.80953 16.911C5.48753 16.7122 4.23645 16.1852 3.1706 15.3782C2.10475 14.5713 1.25811 13.5101 0.708058 12.2916C0.158003 11.0732 -0.077932 9.73628 0.0218111 8.40314C0.121554 7.07 0.553795 5.78311 1.27904 4.66006C2.00428 3.53701 2.9994 2.61362 4.17346 1.97425C5.34752 1.33489 6.66309 0.999939 7.99996 1.00001ZM16 9.00001C16 10.0609 16.4214 11.0783 17.1715 11.8284C17.9217 12.5786 18.9391 13 20 13C21.0608 13 22.0782 12.5786 22.8284 11.8284C23.5785 11.0783 24 10.0609 24 9.00001C24 7.93915 23.5785 6.92173 22.8284 6.17159C22.0782 5.42144 21.0608 5.00001 20 5.00001C18.9391 5.00001 17.9217 5.42144 17.1715 6.17159C16.4214 6.92173 16 7.93915 16 9.00001Z" fill="#C5CEE0"/>
</g>
<defs>
<clipPath id="clip0_155_790">
<rect width="117" height="18" fill="white"/>
</clipPath>
</defs>
</svg>
