<svg width="45" height="67" viewBox="0 0 45 67" fill="none" xmlns="http://www.w3.org/2000/svg">
<g clip-path="url(#clip0_120_50)">
<path d="M11.2522 67C17.461 67 22.5 61.9974 22.5 55.8334V44.6667H11.2522C5.04348 44.6667 0.00448608 49.6694 0.00448608 55.8334C0.00448608 61.9974 5.04348 67 11.2522 67Z" fill="#A5B3AD"/>
<path d="M0.00448608 33.5C0.00448608 27.336 5.04348 22.3333 11.2522 22.3333H22.5V44.6667H11.2522C5.04348 44.6667 0.00448608 39.664 0.00448608 33.5Z" fill="#828184"/>
<path d="M0.00494385 11.1667C0.00494385 5.00267 5.04394 0 11.2527 0H22.5004V22.3333H11.2527C5.04394 22.3333 0.00494385 17.3307 0.00494385 11.1667Z" fill="#6A6361"/>
<path d="M22.5 0H33.7478C39.9565 0 44.9955 5.00267 44.9955 11.1667C44.9955 17.3307 39.9565 22.3333 33.7478 22.3333H22.5V0Z" fill="#878282"/>
<path d="M44.9955 33.5C44.9955 39.664 39.9565 44.6667 33.7478 44.6667C27.539 44.6667 22.5 39.664 22.5 33.5C22.5 27.336 27.539 22.3333 33.7478 22.3333C39.9565 22.3333 44.9955 27.336 44.9955 33.5Z" fill="#9AA0A3"/>
</g>
<defs>
<clipPath id="clip0_120_50">
<rect width="45" height="67" fill="white"/>
</clipPath>
</defs>
</svg>
