<svg width="22" height="22" viewBox="0 0 22 22" fill="none" xmlns="http://www.w3.org/2000/svg">
<path d="M16 22C17.6667 22 19.0833 21.4167 20.25 20.25C21.4167 19.0833 22 17.6667 22 16H20.5C20.5 17.25 20.0625 18.3125 19.1875 19.1875C18.3125 20.0625 17.25 20.5 16 20.5V22ZM0 6H1.5C1.5 4.75 1.9375 3.6875 2.8125 2.8125C3.6875 1.9375 4.75 1.5 6 1.5V0C4.33333 0 2.91667 0.583333 1.75 1.75C0.583333 2.91667 0 4.33333 0 6ZM2.525 19.475C0.908333 17.8583 0.1 15.9167 0.1 13.65C0.1 11.3833 0.908333 9.44167 2.525 7.825L6.225 4.1C6.65833 3.66667 7.1875 3.45 7.8125 3.45C8.4375 3.45 8.96667 3.66667 9.4 4.1C9.46667 4.15 9.54167 4.23333 9.625 4.35C9.70833 4.46667 9.79167 4.58333 9.875 4.7L12.775 1.8C13.2083 1.36667 13.7375 1.15 14.3625 1.15C14.9875 1.15 15.5167 1.36667 15.95 1.8C16.05 1.91667 16.1375 2.03333 16.2125 2.15C16.2875 2.26667 16.3417 2.36667 16.375 2.45C16.7917 2.03333 17.3042 1.83333 17.9125 1.85C18.5208 1.86667 19.0417 2.09167 19.475 2.525C19.8083 2.85833 20.0083 3.27083 20.075 3.7625C20.1417 4.25417 20.0667 4.74167 19.85 5.225C19.9833 5.275 20.1083 5.34167 20.225 5.425C20.3417 5.50833 20.45 5.6 20.55 5.7C20.9833 6.13333 21.2 6.6625 21.2 7.2875C21.2 7.9125 20.9833 8.44167 20.55 8.875L19.925 9.5C20.0417 9.55 20.1542 9.61667 20.2625 9.7C20.3708 9.78333 20.4667 9.86667 20.55 9.95C20.9833 10.3833 21.2042 10.9125 21.2125 11.5375C21.2208 12.1625 21 12.6917 20.55 13.125L14.175 19.475C12.5583 21.0917 10.6167 21.9 8.35 21.9C6.08333 21.9 4.14167 21.0917 2.525 19.475ZM3.575 18.425C4.24167 19.0917 4.9875 19.5875 5.8125 19.9125C6.6375 20.2375 7.48333 20.4 8.35 20.4C9.21667 20.4 10.0625 20.2375 10.8875 19.9125C11.7125 19.5875 12.4583 19.0917 13.125 18.425L19.475 12.05C19.625 11.9 19.7 11.7208 19.7 11.5125C19.7 11.3042 19.625 11.1333 19.475 11C19.325 10.85 19.15 10.775 18.95 10.775C18.75 10.775 18.575 10.85 18.425 11L14.9 14.525L13.825 13.475L19.475 7.825C19.625 7.675 19.7 7.49583 19.7 7.2875C19.7 7.07917 19.625 6.9 19.475 6.75C19.325 6.6 19.15 6.525 18.95 6.525C18.75 6.525 18.575 6.6 18.425 6.75L13.475 11.7L12.425 10.65L18.425 4.625C18.575 4.475 18.6458 4.29583 18.6375 4.0875C18.6292 3.87917 18.5583 3.70833 18.425 3.575C18.275 3.425 18.1 3.35 17.9 3.35C17.7 3.35 17.525 3.425 17.375 3.575L11.35 9.575L10.3 8.525L14.9 3.925C15.05 3.775 15.1208 3.59583 15.1125 3.3875C15.1042 3.17917 15.0333 3.00833 14.9 2.875C14.75 2.725 14.5708 2.65 14.3625 2.65C14.1542 2.65 13.975 2.725 13.825 2.875L7.225 9.475C7.575 10.3417 7.68333 11.225 7.55 12.125C7.41667 13.025 7.03333 13.825 6.4 14.525L5.35 13.475C5.88333 12.8583 6.15 12.15 6.15 11.35C6.15 10.55 5.88333 9.84167 5.35 9.225L8.35 6.225C8.5 6.075 8.57083 5.89583 8.5625 5.6875C8.55417 5.47917 8.48333 5.30833 8.35 5.175C8.2 5.025 8.025 4.95 7.825 4.95C7.625 4.95 7.45 5.025 7.3 5.175L3.575 8.875C2.90833 9.54167 2.4125 10.2875 2.0875 11.1125C1.7625 11.9375 1.6 12.7833 1.6 13.65C1.6 14.5167 1.7625 15.3625 2.0875 16.1875C2.4125 17.0125 2.90833 17.7583 3.575 18.425Z" fill="#79F4DB"/>
</svg>
