<svg width="24" height="24" viewBox="0 0 24 24" fill="none" xmlns="http://www.w3.org/2000/svg">
<g clip-path="url(#clip0_402_10)">
<path d="M17.4545 24C19.2728 24 20.8181 23.3637 22.0909 22.0909C23.3637 20.8181 24 19.2728 24 17.4545H22.3636C22.3636 18.8182 21.8864 19.9773 20.9318 20.9318C19.9773 21.8864 18.8182 22.3636 17.4545 22.3636V24ZM0 6.54545H1.63636C1.63636 5.18182 2.11364 4.02273 3.06818 3.06818C4.02273 2.11364 5.18182 1.63636 6.54545 1.63636V0C4.72727 0 3.18182 0.636363 1.90909 1.90909C0.636363 3.18182 0 4.72727 0 6.54545ZM2.75455 21.2455C0.990909 19.4818 0.109091 17.3637 0.109091 14.8909C0.109091 12.4181 0.990909 10.3 2.75455 8.53636L6.79091 4.47273C7.26363 4 7.84091 3.76364 8.52273 3.76364C9.20455 3.76364 9.78182 4 10.2545 4.47273C10.3273 4.52727 10.4091 4.61818 10.5 4.74545C10.5909 4.87273 10.6818 5 10.7727 5.12727L13.9364 1.96364C14.4091 1.49091 14.9864 1.25455 15.6682 1.25455C16.35 1.25455 16.9273 1.49091 17.4 1.96364C17.5091 2.09091 17.6045 2.21818 17.6864 2.34545C17.7682 2.47273 17.8273 2.58182 17.8636 2.67273C18.3182 2.21818 18.8773 2 19.5409 2.01818C20.2045 2.03637 20.7728 2.28182 21.2455 2.75455C21.6091 3.11818 21.8272 3.56818 21.9 4.10455C21.9728 4.64091 21.8909 5.17273 21.6545 5.7C21.8 5.75455 21.9363 5.82728 22.0636 5.91818C22.1909 6.00909 22.3091 6.10909 22.4182 6.21818C22.8909 6.69091 23.1273 7.26818 23.1273 7.95C23.1273 8.63182 22.8909 9.20909 22.4182 9.68182L21.7364 10.3636C21.8637 10.4182 21.9864 10.4909 22.1045 10.5818C22.2227 10.6727 22.3273 10.7636 22.4182 10.8545C22.8909 11.3272 23.1319 11.9045 23.1409 12.5864C23.15 13.2682 22.9091 13.8455 22.4182 14.3182L15.4636 21.2455C13.7 23.0091 11.5819 23.8909 9.10909 23.8909C6.63636 23.8909 4.51819 23.0091 2.75455 21.2455ZM3.9 20.1C4.62728 20.8273 5.44091 21.3682 6.34091 21.7227C7.24091 22.0773 8.16363 22.2545 9.10909 22.2545C10.0545 22.2545 10.9773 22.0773 11.8773 21.7227C12.7773 21.3682 13.5909 20.8273 14.3182 20.1L21.2455 13.1455C21.4091 12.9818 21.4909 12.7863 21.4909 12.5591C21.4909 12.3319 21.4091 12.1454 21.2455 12C21.0818 11.8364 20.8909 11.7545 20.6727 11.7545C20.4545 11.7545 20.2636 11.8364 20.1 12L16.2545 15.8455L15.0818 14.7L21.2455 8.53636C21.4091 8.37273 21.4909 8.17727 21.4909 7.95C21.4909 7.72273 21.4091 7.52727 21.2455 7.36364C21.0818 7.2 20.8909 7.11818 20.6727 7.11818C20.4545 7.11818 20.2636 7.2 20.1 7.36364L14.7 12.7636L13.5545 11.6182L20.1 5.04545C20.2636 4.88182 20.3409 4.68636 20.3318 4.45909C20.3228 4.23182 20.2454 4.04545 20.1 3.9C19.9364 3.73636 19.7455 3.65455 19.5273 3.65455C19.3091 3.65455 19.1182 3.73636 18.9545 3.9L12.3818 10.4455L11.2364 9.3L16.2545 4.28182C16.4182 4.11818 16.4954 3.92272 16.4864 3.69545C16.4773 3.46819 16.4 3.28181 16.2545 3.13636C16.0909 2.97273 15.8954 2.89091 15.6682 2.89091C15.4409 2.89091 15.2455 2.97273 15.0818 3.13636L7.88182 10.3364C8.26364 11.2819 8.38182 12.2455 8.23636 13.2273C8.09091 14.2091 7.67272 15.0818 6.98182 15.8455L5.83636 14.7C6.41818 14.0272 6.70909 13.2545 6.70909 12.3818C6.70909 11.5091 6.41818 10.7364 5.83636 10.0636L9.10909 6.79091C9.27273 6.62727 9.35 6.43181 9.34091 6.20455C9.33182 5.97728 9.25454 5.79091 9.10909 5.64545C8.94546 5.48182 8.75455 5.4 8.53636 5.4C8.31818 5.4 8.12727 5.48182 7.96364 5.64545L3.9 9.68182C3.17272 10.4091 2.63182 11.2227 2.27727 12.1227C1.92273 13.0227 1.74545 13.9454 1.74545 14.8909C1.74545 15.8364 1.92273 16.7591 2.27727 17.6591C2.63182 18.5591 3.17272 19.3727 3.9 20.1Z" fill="#79F4DB"/>
</g>
<defs>
<clipPath id="clip0_402_10">
<rect width="24" height="24" fill="white"/>
</clipPath>
</defs>
</svg>
