<svg width="12" height="13" viewBox="0 0 12 13" fill="none" xmlns="http://www.w3.org/2000/svg">
<path d="M2.39283 6.49992L6.63095 6.4999M10.0919 7.37435L2.48987 11.399C1.80838 11.7598 1.46769 11.9402 1.24301 11.8883C1.04816 11.8433 0.887223 11.707 0.81081 11.5222C0.7227 11.3091 0.844461 10.9432 1.08831 10.2117L2.22126 6.81284C2.25996 6.69675 2.27928 6.63869 2.28697 6.57931C2.29379 6.52662 2.29392 6.47336 2.2871 6.42067C2.27941 6.36128 2.25996 6.30315 2.22127 6.18706L1.08835 2.78826C0.844515 2.05673 0.722527 1.691 0.81064 1.4779C0.887055 1.2931 1.04821 1.15666 1.24307 1.11167C1.46774 1.05978 1.80848 1.24023 2.48996 1.60101L10.0919 5.62554C10.6277 5.90917 10.8955 6.05092 10.9831 6.24011C11.0594 6.4049 11.0595 6.59498 10.9832 6.75977C10.8956 6.94896 10.6276 7.09071 10.0919 7.37435Z" stroke="#79F4DB" stroke-linecap="round" stroke-linejoin="round"/>
</svg>
