<svg width="24" height="24" viewBox="0 0 24 24" fill="none" xmlns="http://www.w3.org/2000/svg">
<path d="M4.78552 11.9999L13.2618 11.9998M20.1837 13.6142L4.9796 21.0443C3.61662 21.7104 2.93524 22.0434 2.48588 21.9476C2.09618 21.8646 1.77431 21.6129 1.62148 21.2718C1.44526 20.8783 1.68878 20.2028 2.17648 18.8524L4.44238 12.5776C4.51978 12.3632 4.55842 12.256 4.5738 12.1464C4.58744 12.0491 4.5877 11.9508 4.57406 11.8535C4.55868 11.7439 4.51978 11.6366 4.4424 11.4223L2.17656 5.14756C1.68889 3.79704 1.44491 3.12185 1.62114 2.72843C1.77397 2.38726 2.09628 2.13537 2.486 2.05232C2.93534 1.95652 3.61682 2.28966 4.97978 2.95571L20.1837 10.3856C21.2553 10.9092 21.7909 11.1709 21.9661 11.5202C22.1187 11.8244 22.1189 12.1753 21.9663 12.4796C21.7911 12.8289 21.2551 13.0905 20.1837 13.6142Z" stroke="#79F4DB" stroke-width="2" stroke-linecap="round" stroke-linejoin="round"/>
</svg>
