<svg width="143" height="18" viewBox="0 0 143 18" fill="none" xmlns="http://www.w3.org/2000/svg">
<g clip-path="url(#clip0_155_787)">
<path fill-rule="evenodd" clip-rule="evenodd" d="M14.7273 0C10.8 0 8.34545 1.96364 7.36364 5.89091C8.83636 3.92727 10.5545 3.19091 12.5182 3.68182C13.6385 3.96164 14.4393 4.77491 15.3256 5.67436C16.7695 7.14 18.4407 8.83636 22.0909 8.83636C26.0182 8.83636 28.4727 6.87273 29.4545 2.94545C27.9818 4.90909 26.2636 5.64545 24.3 5.15454C23.1796 4.87473 22.3789 4.06145 21.4925 3.162C20.0487 1.69636 18.3775 0 14.7273 0ZM7.36364 8.83636C3.43636 8.83636 0.981818 10.8 0 14.7273C1.47273 12.7636 3.19091 12.0273 5.15454 12.5182C6.27491 12.7985 7.07564 13.6113 7.962 14.5107C9.40582 15.9764 11.0771 17.6727 14.7273 17.6727C18.6545 17.6727 21.1091 15.7091 22.0909 11.7818C20.6182 13.7455 18.9 14.4818 16.9364 13.9909C15.816 13.7111 15.0153 12.8978 14.1289 11.9984C12.6851 10.5327 11.0138 8.83636 7.36364 8.83636Z" fill="#38BDF8"/>
<path fill-rule="evenodd" clip-rule="evenodd" d="M44.1797 7.4466H41.6096V12.4211C41.6096 13.7477 42.4801 13.727 44.1797 13.6441V15.6546C40.739 16.0691 39.371 15.1157 39.371 12.4211V7.4466H37.4641V5.29095H39.371V2.50695L41.6096 1.84368V5.29095H44.1797V7.4466ZM53.9772 5.29095H56.2157V15.6546H53.9772V14.1622C53.1896 15.2608 51.9667 15.9241 50.3499 15.9241C47.531 15.9241 45.1888 13.5404 45.1888 10.4728C45.1888 7.38441 47.531 5.0215 50.3499 5.0215C51.9667 5.0215 53.1896 5.68478 53.9772 6.7626V5.29095ZM50.7023 13.7891C52.5678 13.7891 53.9772 12.4004 53.9772 10.4728C53.9772 8.54514 52.5678 7.15641 50.7023 7.15641C48.8368 7.15641 47.4274 8.54514 47.4274 10.4728C47.4274 12.4004 48.8368 13.7891 50.7023 13.7891ZM59.9467 3.73641C59.159 3.73641 58.5165 3.07314 58.5165 2.30623C58.517 1.92714 58.6681 1.56379 58.9359 1.29573C59.2043 1.02768 59.5676 0.876765 59.9467 0.876045C60.3258 0.876765 60.689 1.02768 60.9574 1.29573C61.2252 1.56379 61.3763 1.92714 61.3768 2.30623C61.3768 3.07314 60.7343 3.73641 59.9467 3.73641ZM58.8274 15.6546V5.29095H61.0659V15.6546H58.8274ZM63.6568 15.6546V0.523682H65.8954V15.6546H63.6568ZM80.4252 5.29095H82.7881L79.5339 15.6546H77.3368L75.1812 8.66951L73.0048 15.6546H70.8077L67.5536 5.29095H69.9165L71.927 12.4419L74.1034 5.29095H76.2383L78.3939 12.4419L80.4252 5.29095ZM85.5656 3.73641C84.7779 3.73641 84.1354 3.07314 84.1354 2.30623C84.1359 1.92714 84.287 1.56379 84.5548 1.29573C84.8232 1.02768 85.1865 0.876765 85.5656 0.876045C85.9447 0.876765 86.3079 1.02768 86.5763 1.29573C86.8441 1.56379 86.9952 1.92714 86.9958 2.30623C86.9958 3.07314 86.3532 3.73641 85.5656 3.73641ZM84.4463 15.6546V5.29095H86.6848V15.6546H84.4463ZM94.727 5.0215C97.0485 5.0215 98.7067 6.59678 98.7067 9.29132V15.6546H96.4681V9.51932C96.4681 7.94405 95.5561 7.11496 94.1467 7.11496C92.675 7.11496 91.5143 7.98551 91.5143 10.0997V15.6546H89.2757V5.29095H91.5143V6.6175C92.1983 5.53969 93.3176 5.0215 94.727 5.0215ZM109.319 1.1455H111.558V15.6546H109.319V14.1622C108.531 15.2608 107.308 15.9241 105.692 15.9241C102.873 15.9241 100.531 13.5404 100.531 10.4728C100.531 7.38441 102.873 5.0215 105.692 5.0215C107.308 5.0215 108.531 5.68478 109.319 6.7626V1.1455ZM106.044 13.7891C107.91 13.7891 109.319 12.4004 109.319 10.4728C109.319 8.54514 107.91 7.15641 106.044 7.15641C104.179 7.15641 102.769 8.54514 102.769 10.4728C102.769 12.4004 104.179 13.7891 106.044 13.7891ZM119.061 15.9241C115.931 15.9241 113.589 13.5404 113.589 10.4728C113.589 7.38441 115.931 5.0215 119.061 5.0215C121.092 5.0215 122.854 6.0786 123.683 7.69532L121.755 8.8146C121.299 7.84041 120.284 7.2186 119.04 7.2186C117.216 7.2186 115.827 8.60732 115.827 10.4728C115.827 12.3382 117.216 13.727 119.04 13.727C120.284 13.727 121.299 13.0844 121.797 12.131L123.724 13.2295C122.854 14.867 121.092 15.9241 119.061 15.9241ZM127.414 8.15132C127.414 10.0375 132.99 8.8975 132.99 12.732C132.99 14.8048 131.186 15.9241 128.948 15.9241C126.875 15.9241 125.383 14.9913 124.719 13.499L126.647 12.3797C126.979 13.3124 127.808 13.8721 128.948 13.8721C129.943 13.8721 130.71 13.5404 130.71 12.7113C130.71 10.8666 125.134 11.903 125.134 8.19278C125.134 6.24441 126.813 5.0215 128.927 5.0215C130.627 5.0215 132.036 5.80914 132.762 7.17714L130.875 8.23423C130.502 7.42587 129.777 7.05278 128.927 7.05278C128.119 7.05278 127.414 7.40514 127.414 8.15132ZM136.969 8.15132C136.969 10.0375 142.545 8.8975 142.545 12.732C142.545 14.8048 140.742 15.9241 138.503 15.9241C136.43 15.9241 134.938 14.9913 134.275 13.499L136.202 12.3797C136.534 13.3124 137.363 13.8721 138.503 13.8721C139.498 13.8721 140.265 13.5404 140.265 12.7113C140.265 10.8666 134.689 11.903 134.689 8.19278C134.689 6.24441 136.368 5.0215 138.482 5.0215C140.182 5.0215 141.591 5.80914 142.317 7.17714L140.431 8.23423C140.058 7.42587 139.332 7.05278 138.482 7.05278C137.674 7.05278 136.969 7.40514 136.969 8.15132Z" fill="#38BDF8"/>
</g>
<defs>
<clipPath id="clip0_155_787">
<rect width="142.909" height="18" fill="white"/>
</clipPath>
</defs>
</svg>
