<svg width="21" height="21" viewBox="0 0 21 21" fill="none" xmlns="http://www.w3.org/2000/svg">
<g clip-path="url(#clip0_402_7)">
<path d="M20.125 2.62507C19.2871 3.21612 18.3593 3.66816 17.3775 3.96382C16.8506 3.35789 16.1502 2.92843 15.3711 2.73351C14.5921 2.53858 13.7721 2.58762 13.0218 2.87396C12.2716 3.16032 11.6273 3.67017 11.1764 4.33458C10.7253 4.99898 10.4892 5.78587 10.5 6.58882V7.46382C8.96231 7.5037 7.43862 7.16266 6.06463 6.47109C4.69065 5.77951 3.50903 4.75888 2.625 3.50007C2.625 3.50007 -0.874999 11.3751 7 14.875C5.19796 16.0983 3.05126 16.7117 0.875 16.6251C8.75 21.0001 18.375 16.6251 18.375 6.56257C18.3742 6.31885 18.3508 6.07572 18.305 5.83632C19.1981 4.95563 19.8283 3.84369 20.125 2.62507Z" stroke="#CCD6F6" stroke-width="2" stroke-linecap="round" stroke-linejoin="round"/>
</g>
<defs>
<clipPath id="clip0_402_7">
<rect width="21" height="21" fill="white"/>
</clipPath>
</defs>
</svg>
