<svg width="131" height="32" viewBox="0 0 131 32" fill="none" xmlns="http://www.w3.org/2000/svg">
<path d="M49.4968 0.602294C46.9214 2.11845 46.1529 3.82152 45.4468 9.55383C45.3222 10.6338 45.0937 12.5446 44.9276 13.8115C44.7614 15.0577 44.4706 17.3631 44.3045 18.9C44.1176 20.4369 43.8891 22.4515 43.7645 23.3654C43.4737 25.4008 43.5568 26.2523 44.0345 26.3354C44.6368 26.4392 45.9453 25.9823 46.9629 25.3177C47.8976 24.6946 47.9806 24.6946 48.4168 25.0061C50.8053 26.7715 52.0099 27.0831 54.0868 26.4808C55.7483 26.0031 56.5583 25.5046 57.9499 24.0715C59.5076 22.4515 60.5253 20.3746 61.0653 17.6331C61.4599 15.7223 61.4806 15.2654 61.2729 13.6246C60.9822 11.2361 60.2345 9.69922 58.9883 8.82691C58.1576 8.24537 57.9499 8.20383 56.2883 8.20383C54.6891 8.20383 54.3776 8.26614 53.5053 8.78537C52.9653 9.09691 52.0722 9.74076 51.5322 10.1977C50.7014 10.9454 50.5353 11.0077 50.4314 10.6961C50.3483 10.4884 50.3691 9.80306 50.4522 9.15922C50.5353 8.51537 50.7222 7.01999 50.8468 5.81537C50.9922 4.61075 51.1791 3.13614 51.2829 2.51306C51.3868 1.88999 51.4699 1.05922 51.4699 0.685371C51.4699 0.103832 51.3868 -1.38991e-05 51.0129 -1.38991e-05C50.7429 -1.38991e-05 50.0783 0.269986 49.4968 0.602294ZM55.3745 12.2538C56.2468 13.0846 56.4337 14.7461 55.956 17.4877C55.4368 20.3538 54.2529 22.2646 52.5706 22.9708C51.9891 23.22 51.636 23.2408 50.7429 23.0538C49.0191 22.7008 48.8737 22.41 49.1437 20.0838C49.5591 16.6984 50.7222 13.9569 52.3422 12.5861C53.3806 11.6931 54.6268 11.5477 55.3745 12.2538Z" fill="#38BDF8"/>
<path d="M73.1944 0.332298C71.3875 0.685375 69.8505 1.4123 68.7705 2.45076C67.7944 3.38538 66.7352 5.48307 66.5275 6.87461C66.3613 8.05845 66.2782 8.1623 65.3436 8.59845C64.4505 9.03461 63.5159 10.2808 63.5159 11.07C63.5159 11.5892 63.5782 11.6308 64.3467 11.6308C64.8036 11.6308 65.2398 11.6308 65.3021 11.61C65.7798 11.5477 65.8421 12.7523 65.489 15.0577C65.3436 15.9508 64.6167 21.8908 64.4505 23.3654C64.1182 26.6054 63.6613 29.9077 63.4121 30.9877C63.1213 32.2754 63.1628 32.4 63.8482 32.4C65.1775 32.4 67.2336 30.8215 68.2305 29.0561C68.9159 27.8515 69.2482 25.8369 70.3905 16.0961C70.6398 13.9154 70.9305 12.0254 71.0552 11.88C71.159 11.7554 71.6575 11.6308 72.1352 11.6308C73.5682 11.6308 74.8767 10.2185 74.6898 8.88922C74.6275 8.45307 74.5236 8.41153 72.9659 8.30768C71.3667 8.20384 71.3044 8.18307 71.2628 7.68461C71.2421 7.39384 71.3252 6.77076 71.4498 6.29307C71.5744 5.81538 71.6575 5.35845 71.6367 5.29614C71.6367 5.23384 71.9067 4.9223 72.2598 4.58999C72.6752 4.17461 73.2775 3.88384 73.9836 3.73845C75.479 3.42691 75.8944 2.99076 76.0605 1.57845C76.1436 0.934606 76.1644 0.332298 76.0813 0.207683C75.9152 -0.0623171 74.9598 -0.0207786 73.1944 0.332298Z" fill="#38BDF8"/>
<path d="M79.1344 0.269994C79.0306 0.415379 78.8229 1.4123 78.6983 2.4923C78.5529 3.5723 78.3036 5.39999 78.1583 6.5423C77.9921 7.68461 77.7636 9.55384 77.639 10.6961C77.5352 11.8385 77.3483 13.4169 77.2444 14.2269C76.9329 16.4077 76.2267 21.9531 76.0813 23.3654C76.019 24.0508 75.8113 25.3385 75.6452 26.2315C75.2506 28.2461 75.3129 28.4746 76.2267 28.2669C78.8021 27.6854 80.5259 25.6292 81.1698 22.3892C81.5436 20.5408 83.0806 7.37307 83.1013 5.91922C83.1221 4.00846 82.5821 2.45076 81.4606 1.32922C80.5052 0.37384 79.4459 -0.124621 79.1344 0.269994Z" fill="#38BDF8"/>
<path d="M33.6083 8.30768C32.2583 8.59845 30.1814 9.71999 29.0183 10.8C28.0214 11.7554 26.256 14.4554 26.4637 14.7877C26.526 14.8708 26.4845 14.9538 26.3598 14.9538C26.0275 14.9538 25.6537 17.82 25.7575 19.71C25.8198 21.2054 25.9445 21.7246 26.526 22.8877C28.3952 26.6677 33.276 27.8723 37.6998 25.6292C40.7114 24.1131 41.4591 23.2408 40.3583 22.5138C39.4445 21.9323 38.2191 21.9323 36.6614 22.5138C33.3591 23.7808 30.9291 22.7215 30.846 20.0008C30.8045 18.8792 30.7629 18.9 33.6291 18.5054C36.9729 18.0484 40.1921 16.6154 40.8775 15.2654C41.0437 14.9123 41.2721 14.58 41.376 14.4969C41.4798 14.4346 41.5837 13.6661 41.5837 12.8146C41.6045 11.3192 41.5629 11.2361 40.7737 10.2808C39.6729 8.93076 38.2398 8.28691 36.1421 8.18307C35.2698 8.1623 34.1275 8.20383 33.6083 8.30768ZM36.4952 11.5685C37.1806 12.15 37.2637 13.0638 36.6821 13.9154C36.3083 14.4761 35.8721 14.7461 34.8545 15.12C33.2137 15.7015 31.2406 15.8469 31.1991 15.3692C31.1783 14.8915 32.3414 12.7731 32.9437 12.1915C33.9821 11.2361 35.706 10.9246 36.4952 11.5685Z" fill="#38BDF8"/>
<path d="M93.6314 8.32846C91.9907 8.51539 91.3468 8.74385 89.9968 9.65769C87.1514 11.5477 85.6561 13.9569 85.1161 17.5292C84.6384 20.6031 85.7391 23.9262 87.733 25.4423C89.0207 26.4185 90.5991 26.8546 92.593 26.7508C94.1091 26.6885 94.5868 26.5638 95.9784 25.8785C102.5 22.7423 104.328 12.9185 99.0314 9.38769C97.4945 8.37 95.916 8.05846 93.6314 8.32846ZM95.916 12.2331C96.7468 12.8354 97.0168 13.9362 96.8922 16.4285C96.7053 19.98 95.4799 22.5554 93.7145 23.0331C91.8868 23.5315 90.5576 22.5762 90.2253 20.52C90.0176 19.1285 90.4745 15.6185 91.0145 14.4554C92.1568 12.0462 94.2753 11.0908 95.916 12.2331Z" fill="#38BDF8"/>
<path d="M0.0244436 8.84769C-0.0378641 9.03461 0.0244436 9.84461 0.149059 10.6546C0.294444 11.4854 0.502136 12.7108 0.605982 13.3962C0.709828 14.0815 1.08367 16.47 1.43675 18.6923C2.43367 25.0477 2.66214 26.2523 2.84906 26.4392C3.09829 26.6885 4.69752 26.2938 5.79829 25.7331C7.64675 24.7985 8.5606 23.3862 10.5544 18.4223C11.7798 15.3692 12.0291 14.9123 12.2991 15.3277C12.3614 15.4315 12.7352 17.82 13.1506 20.6862C13.5868 23.5315 14.0021 26.0238 14.106 26.2108C14.3552 26.6677 14.7498 26.6677 15.9544 26.2523C18.7375 25.2762 20.2121 23.4692 21.8321 18.9831C22.206 17.9862 24.4075 12.5031 24.6775 11.9423C25.1137 11.0285 25.9444 8.66077 25.8406 8.57769C25.7783 8.51538 25.3629 8.53615 24.906 8.61923C23.2237 8.88923 21.1052 10.7792 20.2121 12.7731C19.9629 13.3338 19.2152 15.4315 18.5714 17.3838C17.9068 19.3569 17.3044 20.9769 17.2006 20.9769C17.0968 20.9769 16.9721 20.8108 16.9098 20.6031C16.7852 20.1877 16.1206 15.4523 15.6429 11.5477C15.4768 10.0731 15.2691 8.78538 15.2068 8.70231C14.9575 8.28692 13.6906 8.55692 12.5068 9.26308C10.6168 10.4054 9.86906 11.4231 8.58137 14.6423C8.18675 15.6808 7.77137 16.6569 7.66752 16.8438C7.56367 17.01 7.23137 17.82 6.91983 18.6092C6.04752 20.8731 6.00598 20.9769 5.79829 20.9769C5.54906 20.9769 5.36214 19.8969 5.36214 18.1938C5.34137 15.3069 4.98829 12.5654 4.53137 11.6723C3.99137 10.6338 2.70367 9.42923 1.5406 8.91C0.481367 8.43231 0.190597 8.41154 0.0244436 8.84769Z" fill="#38BDF8"/>
<path d="M104.514 9.99C104.597 10.7792 104.805 12.0669 104.951 12.8354C105.117 13.6038 105.428 15.4938 105.657 17.0308C106.384 22.0154 106.924 25.2138 107.09 25.8577C107.256 26.4185 107.36 26.4808 108.024 26.46C109.624 26.4185 111.929 24.7777 113.092 22.8462C113.341 22.4515 114.11 20.6654 114.837 18.9C116.187 15.5146 116.436 15.0369 116.706 15.3069C116.789 15.39 117.017 16.5946 117.225 17.9654C117.412 19.3362 117.786 21.8077 118.014 23.4692L118.451 26.4808L119.115 26.5431C120.195 26.6469 122.293 25.5254 123.497 24.2169C124.474 23.1369 124.661 22.7838 126.654 18.0692C127.88 15.1823 130.185 9.18 130.185 8.84769C130.185 8.53615 130.081 8.49462 129.437 8.61923C128.254 8.82692 127.153 9.51231 126.114 10.6546C124.91 12.0046 124.661 12.5238 123.456 16.3038C122.293 19.9385 121.877 20.9769 121.628 20.9769C121.545 20.9769 121.462 20.9354 121.462 20.8731C121.462 20.8315 121.275 19.6269 121.047 18.2354C120.818 16.8231 120.444 14.1438 120.216 12.2746C119.967 10.3846 119.738 8.78538 119.676 8.68154C119.468 8.34923 118.201 8.51538 117.184 9.03462C115.335 9.94846 114.234 11.5062 112.801 15.2654C112.407 16.2831 111.908 17.5085 111.701 17.9654C111.493 18.4223 111.202 19.17 111.057 19.6269C110.351 21.7869 110.06 21.3092 109.831 17.5292C109.541 12.7938 109.478 12.4823 108.689 11.2777C107.921 10.1146 106.986 9.32538 105.823 8.82692C104.431 8.24538 104.348 8.32846 104.514 9.99Z" fill="#38BDF8"/>
</svg>
