<svg width="78" height="33" viewBox="0 0 78 33" fill="none" xmlns="http://www.w3.org/2000/svg">
<path d="M59.7474 0.0707294C59.1843 0.191389 58.943 0.322104 58.4905 0.754469C57.9676 1.25722 57.7665 1.89068 57.8269 2.92635C57.9174 4.58542 58.7922 5.40993 60.4713 5.41998C62.1405 5.41998 63.0856 4.6558 63.2867 3.12745C63.3772 2.44371 63.1862 1.50859 62.8544 1.02595C62.3315 0.261774 60.9138 -0.180645 59.7474 0.0707294Z" fill="#38BDF8"/>
<path d="M15.2239 0.261769C14.9826 0.372374 14.1983 1.07622 13.2934 2.00128L11.7549 3.5397L13.5648 5.34959L15.3747 7.15949L16.0183 7.12933C16.8428 7.07905 17.5466 7.37065 18.0795 7.97395C18.532 8.4968 18.713 9.03977 18.6828 9.83412L18.6527 10.4374L20.3821 12.187L22.1015 13.9366L22.6344 13.8762C23.5997 13.7757 24.384 14.1276 24.9873 14.9219C25.9023 16.1185 25.48 17.8681 24.1226 18.6121C23.1875 19.1249 22.0613 18.9942 21.277 18.2803C20.5631 17.6368 20.2112 16.4805 20.4927 15.7263C20.5832 15.5051 20.4525 15.3443 18.9845 13.8863L17.3857 12.2875V16.571V20.8544L17.7779 21.1661C18.9744 22.1314 18.9945 24.1323 17.808 25.1076C16.1992 26.445 13.6855 25.2786 13.6654 23.1972C13.6654 22.2922 14.0575 21.518 14.7714 21.0856L15.1636 20.8343L15.1736 16.3799C15.1736 13.9366 15.1334 11.9356 15.0831 11.9356C15.0429 11.9356 14.8016 11.7546 14.5502 11.5334C13.8967 10.9703 13.6352 10.3067 13.6855 9.36153L13.7157 8.62752L11.956 6.85784L10.2065 5.08816L5.24937 10.0453C1.31787 13.9667 0.252037 15.0929 0.131377 15.4247C-0.0998879 16.028 -0.019448 16.8424 0.322422 17.3351C0.473246 17.5463 3.83161 20.9549 7.80333 24.9267C14.8117 31.9249 15.0429 32.1361 15.5758 32.2869C16.0685 32.4377 16.1691 32.4377 16.6819 32.2869C17.2249 32.1361 17.3857 31.9853 24.5047 24.8764C28.5066 20.8845 31.8649 17.4759 31.9755 17.2949C32.237 16.8827 32.3275 16.0883 32.1666 15.5956C32.066 15.2739 30.6684 13.8159 24.6857 7.82312C19.6582 2.78557 17.2047 0.392484 16.9333 0.261769C16.4205 0.0204498 15.7367 0.0204498 15.2239 0.261769Z" fill="#38BDF8"/>
<path d="M69.2293 3.20787C68.8472 5.23898 68.6964 5.67134 68.1534 6.46569C67.711 7.10921 66.9569 7.57174 65.9413 7.82311L65.0967 8.03426L65.1168 9.36152L65.1369 10.6787L66.2932 10.7089C66.9367 10.7189 67.4697 10.7491 67.4797 10.7592C67.4898 10.7692 67.53 13.0618 67.5602 15.857C67.6205 21.4677 67.6205 21.4677 68.2942 22.4531C68.7366 23.1167 69.3499 23.5592 70.2046 23.8206C71.2403 24.1524 73.6334 24.1524 74.9204 23.8206C75.9058 23.5793 77.3738 23.0363 77.4744 22.8855C77.5246 22.805 76.861 20.412 76.7605 20.3014C76.7404 20.2812 76.3281 20.3617 75.8455 20.4823C75.1617 20.6533 74.7595 20.6935 74.0758 20.6633C73.02 20.6131 72.7586 20.4723 72.3865 19.7182L72.1352 19.2255L72.105 14.9722L72.0648 10.729H74.3875H76.7102V9.19059V7.66223L74.5986 7.6924C73.2312 7.7125 72.4167 7.68234 72.286 7.61196C72.095 7.51141 72.0849 7.4008 72.0849 5.24903V2.98666H70.6772C69.2997 2.98666 69.2695 2.98666 69.2293 3.20787Z" fill="#38BDF8"/>
<path d="M44.1823 8.15493C41.3669 8.71801 39.6877 10.2665 39.2453 12.74C38.833 15.0024 39.5268 16.9732 41.1557 18.1999C41.4373 18.4211 41.6786 18.6021 41.6987 18.6222C41.7088 18.6322 41.2161 19.1651 40.5826 19.7886C39.2855 21.0856 39.004 21.5582 39.004 22.4028C39.014 23.157 39.2855 23.7201 39.8486 24.1223L40.3111 24.444L39.748 25.0171C38.9638 25.8517 38.6621 26.5556 38.6621 27.5711C38.6722 28.4358 38.823 28.9185 39.2654 29.5117C39.8587 30.2759 41.3166 30.9295 43.0561 31.1809C46.4145 31.6937 49.8634 31.3618 51.9146 30.3362C53.3223 29.6424 54.1468 28.7475 54.5892 27.4102C54.7803 26.8572 54.8104 26.6058 54.7702 25.6104C54.7099 24.1926 54.4987 23.6296 53.7748 22.9458C52.6989 21.9403 51.3515 21.6186 46.9977 21.337C43.951 21.146 43.3276 21.0856 43.3377 21.0052C43.3477 20.8343 44.3231 19.4266 44.4136 19.4467C45.0671 19.5875 46.5854 19.688 47.3597 19.6377C51.0398 19.4065 53.2821 17.4357 53.3122 14.3991C53.3223 13.3332 53.1413 12.6395 52.6285 11.7948C52.4374 11.4731 52.2766 11.1714 52.2766 11.1312C52.2766 11.091 52.8497 11.0206 53.5435 10.9904C54.2473 10.9502 54.8808 10.8899 54.9512 10.8597C55.0618 10.8195 55.092 10.5179 55.092 9.56263V8.31581H52.0453C50.1047 8.31581 48.878 8.27559 48.6568 8.20521C48.0937 8.02422 45.0068 7.99405 44.1823 8.15493ZM47.6613 11.1815C48.3048 11.4127 48.707 11.7747 49.0187 12.3881C49.24 12.8506 49.2902 13.0819 49.2902 13.7254C49.2902 14.198 49.2299 14.6404 49.1394 14.8516C48.7171 15.8269 47.8524 16.3699 46.5854 16.4402C44.6247 16.5508 43.4784 15.6057 43.4784 13.8963C43.4885 12.5892 44.0616 11.634 45.0671 11.2418C45.7207 10.9904 47.0279 10.9603 47.6613 11.1815ZM46.5955 25.4596C49.1495 25.6305 49.6522 25.731 50.0242 26.093C50.2555 26.3343 50.2857 26.4248 50.2354 26.8673C50.1952 27.2996 50.1349 27.4203 49.7829 27.732C49.0891 28.3453 48.4456 28.4761 46.143 28.4761C44.5443 28.4761 44.0717 28.4459 43.6092 28.2951C42.1814 27.8527 41.8395 26.8371 42.7344 25.6305L43.0461 25.1981L43.7198 25.2585C44.0817 25.2886 45.3788 25.3791 46.5955 25.4596Z" fill="#38BDF8"/>
<path d="M56.9019 8.08455C56.9019 8.13482 56.8315 8.59735 56.751 9.12021C56.5298 10.5681 56.4796 10.4475 57.4549 10.7692C57.9275 10.9201 58.38 11.1111 58.4604 11.1915C58.5911 11.3223 58.6112 12.016 58.6112 16.3095C58.6112 21.9303 58.7017 21.4074 57.7565 21.5281C57.4851 21.5683 57.103 21.6286 56.932 21.6588L56.6002 21.7091V22.9056V24.1021H60.9741H65.3481V22.9056V21.7091L65.0766 21.6588C64.9157 21.6286 64.5135 21.5683 64.1616 21.5281C63.8096 21.4878 63.4577 21.3974 63.3773 21.3169C63.2566 21.1963 63.2365 20.1706 63.2365 14.5901V8.01416H60.0692C58.3297 8.01416 56.9019 8.04433 56.9019 8.08455Z" fill="#38BDF8"/>
</svg>
